<?xml version="1.0" encoding="UTF-8"?>
<svg width="205px" height="244px" viewBox="0 0 205 244" version="1.1" xmlns="http://www.w3.org/2000/svg" xmlns:xlink="http://www.w3.org/1999/xlink">
    <!-- Generator: Sketch 62 (91390) - https://sketch.com -->
    <title>big_white</title>
    <desc>Created with Sketch.</desc>
    <g id="Logo" stroke="none" stroke-width="1" fill="none" fill-rule="evenodd">
        <g id="big_white" fill="#FFFFFF" fill-rule="nonzero">
            <path d="M22.85,195.53 L40.43,195.53 L40.43,204.45 L22.85,204.45 L22.85,224.69 C22.8145414,226.142432 23.0137706,227.591064 23.44,228.98 C23.7627206,230.011022 24.3365815,230.945693 25.11,231.7 C25.8554585,232.40217 26.7620381,232.910404 27.75,233.18 C28.8782015,233.481096 30.0424176,233.625782 31.21,233.61 C32.13,233.61 33.08,233.61 34.06,233.48 C35.04,233.35 35.96,233.28 36.86,233.13 C37.76,232.98 38.55,232.89 39.32,232.74 C40.09,232.59 40.75,232.45 41.32,232.31 L42.5,240.62 C41.5502125,241.155891 40.5441044,241.585164 39.5,241.9 C38.31704,242.273926 37.1112066,242.571209 35.89,242.79 C34.61,243.03 33.28,243.21 31.89,243.34 C30.5,243.47 29.16,243.53 27.82,243.53 C25.4487665,243.564197 23.086809,243.226774 20.82,242.53 C18.8001067,241.900957 16.956933,240.804645 15.44,239.33 C13.8773478,237.800073 12.6986113,235.922318 12,233.85 C11.1308129,231.274666 10.717947,228.567349 10.78,225.85 L10.78,204.45 L0,204.45 L0,195.53 L10.75,195.53 L10.75,184 L22.85,184 L22.85,195.53 Z" id="Path"></path>
            <path d="M65.94,218.94 L65.94,242.62 L53.71,242.62 L53.71,179.25 L75,179.25 C78.2193542,179.210031 81.4280666,179.627534 84.53,180.49 C87.1783546,181.221221 89.6605018,182.457202 91.84,184.13 C93.8443894,185.727574 95.432843,187.786045 96.47,190.13 C97.6085822,192.735539 98.1681266,195.557145 98.11,198.4 C98.1366655,200.465107 97.8638285,202.523174 97.3,204.51 C96.3336156,207.964111 94.2522597,211.001766 91.38,213.15 C89.918071,214.256745 88.3344661,215.192816 86.66,215.94 L100.28,242.09 L100.28,242.66 L87.13,242.66 L75.21,218.94 L65.94,218.94 Z M75,209 C76.7010008,209.033102 78.3942447,208.762183 80,208.2 C81.3434046,207.722995 82.5488272,206.922814 83.51,205.87 C84.2588109,205.035404 84.8333831,204.059651 85.2,203 C85.6031348,201.777803 85.7991685,200.496824 85.78,199.21 C85.8098105,197.688737 85.5519557,196.175536 85.02,194.75 C84.5420062,193.508134 83.7576864,192.407335 82.74,191.55 C81.7606739,190.759726 80.6362323,190.16863 79.43,189.81 C77.9750862,189.386067 76.465293,189.180492 74.95,189.2 L65.95,189.2 L65.95,209 L75,209 Z" id="Shape"></path>
            <path d="M120.21,242.62 L108,242.62 L108,179.25 L129.67,179.25 C132.853276,179.20484 136.020249,179.712367 139.03,180.75 C141.658743,181.657276 144.084382,183.070533 146.17,184.91 C148.110494,186.712586 149.644564,188.90801 150.67,191.35 C151.756155,193.98408 152.297047,196.811011 152.26,199.66 C152.28807,202.369067 151.746358,205.053781 150.67,207.54 C149.634744,209.912812 148.099838,212.034393 146.17,213.76 C144.077013,215.60018 141.640062,217.00729 139,217.9 C135.987838,218.925959 132.821751,219.426579 129.64,219.38 L120.2,219.38 L120.21,242.62 Z M129.65,209.46 C131.196808,209.491148 132.735044,209.22289 134.18,208.67 C135.391343,208.194657 136.488625,207.468816 137.4,206.54 C138.236569,205.643884 138.879896,204.585287 139.29,203.43 C139.714073,202.249451 139.930602,201.004406 139.93,199.75 C139.939228,198.347942 139.723142,196.953507 139.29,195.62 C138.894443,194.38339 138.251398,193.240199 137.4,192.26 C136.500717,191.284972 135.402661,190.514287 134.18,190 C132.742112,189.418301 131.200719,189.135883 129.65,189.17 L120.21,189.17 L120.21,209.46 L129.65,209.46 Z" id="Shape"></path>
            <path d="M202.62,231.39 C201.500194,233.860995 199.895062,236.081655 197.9,237.92 C195.848282,239.759318 193.452019,241.173283 190.85,242.08 C187.935275,243.078419 184.870739,243.56888 181.79,243.53 C179.340336,243.55903 176.900077,243.221978 174.55,242.53 C172.401139,241.888646 170.3736,240.895152 168.55,239.59 C166.900077,238.376991 165.440634,236.92429 164.22,235.28 C162.93492,233.557658 161.860612,231.687691 161.02,229.71 C160.143635,227.550478 159.496746,225.304801 159.09,223.01 C158.627757,220.45277 158.400145,217.858653 158.409693,215.26 L158.409693,206.73 C158.404271,204.287018 158.608354,201.848057 159.02,199.44 C159.401022,197.241254 160.014462,195.089188 160.85,193.02 C161.73401,190.699043 162.968324,188.52719 164.51,186.58 C165.970331,184.738159 167.699725,183.126755 169.64,181.8 C171.383158,180.675042 173.283958,179.815638 175.28,179.25 C177.42276,178.639511 179.642062,178.339788 181.87,178.36 C185.029413,178.305917 188.173795,178.806852 191.16,179.84 C196.390422,181.637162 200.578195,185.624126 202.63,190.76 C203.780456,193.608409 204.485385,196.617005 204.72,199.68 L192.54,199.68 C192.468179,197.984974 192.186017,196.305441 191.7,194.68 C191.307648,193.368447 190.647014,192.152745 189.76,191.11 C188.860438,190.162284 187.750542,189.439481 186.52,189 C185.027867,188.488364 183.457016,188.244611 181.88,188.28 C180.97754,188.276796 180.077898,188.380859 179.2,188.59 C178.401094,188.784938 177.633577,189.091271 176.92,189.5 C175.696653,190.248464 174.668464,191.276653 173.92,192.5 C173.044537,193.901787 172.371234,195.420085 171.92,197.01 C171.525175,198.458183 171.250906,199.936565 171.1,201.43 C170.91732,203.157198 170.83052,204.893194 170.84,206.63 L170.84,215.24 C170.820135,217.503428 170.95713,219.765512 171.25,222.01 C171.473894,223.787046 171.903439,225.532072 172.53,227.21 C172.906515,228.165346 173.396711,229.071872 173.99,229.91 C174.523652,230.677688 175.178917,231.353219 175.93,231.91 C176.720556,232.494666 177.612121,232.928583 178.56,233.19 C179.614963,233.481233 180.705649,233.622618 181.8,233.61 C183.259347,233.627331 184.712779,233.421625 186.11,233 C187.334442,232.62292 188.454087,231.965514 189.38,231.08 C190.330495,230.135792 191.058195,228.991286 191.51,227.73 C192.088327,226.149471 192.425437,224.490888 192.51,222.81 L204.74,222.81 C204.563521,225.775511 203.844982,228.68356 202.62,231.39 Z" id="Path"></path>
            <path d="M101.76,0 L132.56,17.77 L132.56,27.541 L169.84,49.07 L169.84,85.897 L179.84,91.67 L179.84,127.23 L149.06,145 L135.395,137.097 L102.17,156.28 L69.144,137.208 L55.67,145 L24.89,127.2 L24.89,91.67 L34.5,86.122 L34.5,49.07 L70.98,28.01 L71,28.009 L71,17.77 L101.76,0 Z M132.56,36.781 L132.56,53.31 L101.78,71.08 L71,53.31 L71,37.239 L70.98,37.24 L42.5,53.69 L42.5,81.503 L55.67,73.9 L86.45,91.67 L86.45,127.2 L77.138,132.585 L102.17,147.04 L127.401,132.475 L118.28,127.2 L118.28,91.67 L149.06,73.9 L161.84,81.278 L161.84,53.69 L132.56,36.781 Z M126.28,100.93 L126.28,122.62 L145.06,133.46 L145.06,111.77 L126.28,100.93 Z M171.84,100.9 L153.06,111.74 L153.06,133.46 L171.84,122.59 L171.84,100.9 Z M32.89,100.9 L32.89,122.59 L51.67,133.43 L51.67,111.74 L32.89,100.9 Z M78.45,100.9 L59.67,111.74 L59.67,133.43 L78.45,122.59 L78.45,100.9 Z M149.06,83.16 L130.28,94 L149.06,104.85 L167.84,94 L149.06,83.16 Z M55.67,83.13 L36.89,94 L55.67,104.82 L74.45,94 L55.67,83.13 Z M79,27 L79,48.69 L97.76,59.53 L97.76,37.85 L79,27 Z M124.54,27 L105.78,37.85 L105.78,59.52 L124.54,48.69 L124.54,27 Z M101.76,9.24 L83,20.08 L101.76,30.92 L120.54,20.08 L101.76,9.24 Z" id="Shape"></path>
        </g>
    </g>
</svg>