<?xml version="1.0" encoding="UTF-8"?>
<svg width="156px" height="157px" viewBox="0 0 156 157" version="1.1" xmlns="http://www.w3.org/2000/svg" xmlns:xlink="http://www.w3.org/1999/xlink">
    <!-- Generator: Sketch 62 (91390) - https://sketch.com -->
    <title>symbol_white</title>
    <desc>Created with Sketch.</desc>
    <g id="Logo" stroke="none" stroke-width="1" fill="none" fill-rule="evenodd">
        <g id="symbol_white" fill="#FFFFFF" fill-rule="nonzero">
            <path d="M77.76,0 L108.56,17.77 L108.56,27.541 L145.84,49.07 L145.84,85.897 L155.84,91.67 L155.84,127.23 L125.06,145 L111.395,137.097 L78.17,156.28 L45.144,137.208 L31.67,145 L0.89,127.2 L0.89,91.67 L10.5,86.122 L10.5,49.07 L46.98,28.01 L47,28.009 L47,17.77 L77.76,0 Z M108.56,36.781 L108.56,53.31 L77.78,71.08 L47,53.31 L47,37.239 L46.98,37.24 L18.5,53.69 L18.5,81.503 L31.67,73.9 L62.45,91.67 L62.45,127.2 L53.138,132.585 L78.17,147.04 L103.401,132.475 L94.28,127.2 L94.28,91.67 L125.06,73.9 L137.84,81.278 L137.84,53.69 L108.56,36.781 Z M102.28,100.93 L102.28,122.62 L121.06,133.46 L121.06,111.77 L102.28,100.93 Z M147.84,100.9 L129.06,111.74 L129.06,133.46 L147.84,122.59 L147.84,100.9 Z M8.89,100.9 L8.89,122.59 L27.67,133.43 L27.67,111.74 L8.89,100.9 Z M54.45,100.9 L35.67,111.74 L35.67,133.43 L54.45,122.59 L54.45,100.9 Z M125.06,83.16 L106.28,94 L125.06,104.85 L143.84,94 L125.06,83.16 Z M31.67,83.13 L12.89,94 L31.67,104.82 L50.45,94 L31.67,83.13 Z M55,27 L55,48.69 L73.76,59.53 L73.76,37.85 L55,27 Z M100.54,27 L81.78,37.85 L81.78,59.52 L100.54,48.69 L100.54,27 Z M77.76,9.24 L59,20.08 L77.76,30.92 L96.54,20.08 L77.76,9.24 Z" id="Shape"></path>
        </g>
    </g>
</svg>